<svg width="16" height="15" viewBox="0 0 16 15" fill="none" xmlns="http://www.w3.org/2000/svg">
<path fill-rule="evenodd" clip-rule="evenodd" d="M1.11628 5.14644C1.11628 2.76058 2.75825 1.14365 4.65116 1.14365C5.57406 1.14365 6.43714 1.54162 7.10244 2.05468C7.62954 2.4612 8.37046 2.4612 8.89756 2.05468C9.56287 1.54162 10.426 1.14365 11.3488 1.14365C13.2676 1.14365 14.8837 2.75794 14.8837 5.14644C14.8837 7.3158 13.8816 9.098 12.558 10.5341C11.2313 11.9735 9.61838 13.0245 8.48022 13.7206C8.18456 13.9016 7.81544 13.9016 7.51978 13.7206C6.38163 13.0245 4.76866 11.9735 3.44198 10.5341C2.11843 9.098 1.11628 7.3158 1.11628 5.14644ZM4.65116 0C2.07896 0 0 2.19526 0 5.14644C0 7.70655 1.18931 9.75568 2.63036 11.3193C4.06827 12.8795 5.79306 13.9964 6.9475 14.7026C7.59568 15.0991 8.40432 15.0991 9.0525 14.7026C10.207 13.9964 11.9318 12.8795 13.3697 11.3193C14.8107 9.75568 16 7.70655 16 5.14644C16 2.1979 13.9518 0 11.3488 0C10.1172 0 9.02415 0.525631 8.22623 1.14096C8.09667 1.2409 7.90333 1.2409 7.77377 1.14096C6.97585 0.525631 5.88277 0 4.65116 0ZM12.8445 5.68064C13.1496 5.67225 13.4101 5.42141 13.4324 5.10042V5.00969C13.4547 3.94152 12.8229 2.97399 11.8622 2.6004C11.5571 2.49289 11.2222 2.66139 11.1105 2.98162C11.0064 3.30184 11.1701 3.65256 11.4826 3.76616C11.9597 3.94915 12.2789 4.43025 12.2789 4.96318V4.98682C12.2648 5.16142 12.3161 5.32992 12.4203 5.45954C12.5245 5.58915 12.6808 5.66463 12.8445 5.68064Z" fill="#292929"/>
</svg>
