<svg width="16" height="15" viewBox="0 0 16 15" fill="none" xmlns="http://www.w3.org/2000/svg">
<path fill-rule="evenodd" clip-rule="evenodd" d="M16 4.9522C16 2.06342 14.0304 0 11.6 0C10.4419 0 9.39048 0.499908 8.60408 1.11067C8.25104 1.38481 7.74896 1.38481 7.39592 1.11067C6.60952 0.499908 5.55805 0 4.4 0C2 0 0 2.06342 0 4.9522C0 10.072 4.71163 13.2475 7.17616 14.7656C7.68352 15.0781 8.31648 15.0781 8.82384 14.7656C11.2884 13.2475 16 10.072 16 4.9522ZM13.2078 5.53048C13.5358 5.5214 13.8158 5.24986 13.8398 4.90238V4.80416C13.8638 3.64782 13.1846 2.60044 12.1518 2.19601C11.8238 2.07963 11.4638 2.26203 11.3438 2.60869C11.2318 2.95534 11.4078 3.33502 11.7438 3.45799C12.2566 3.65608 12.5998 4.17689 12.5998 4.75381V4.7794C12.5846 4.96841 12.6398 5.15081 12.7518 5.29113C12.8638 5.43145 13.0318 5.51316 13.2078 5.53048Z" fill="#E84040"/>
</svg>
